<svg aria-hidden="true" style="position: absolute; width: 0; height: 0; overflow: hidden;" version="1.1" xmlns="http://www.w3.org/2000/svg" xmlns:xlink="http://www.w3.org/1999/xlink">
<defs>
<symbol id="icon-checked" viewBox="0 0 32 32">
<path fill="#ffb800" style="fill: var(--color1, #ffb800)" d="M16 32c-0.149 0-0.3-0.033-0.438-0.102-6.326-3.080-11.563-6.404-11.563-15.899v-11c0-0.421 0.263-0.796 0.658-0.939l11-4c0.221-0.080 0.463-0.080 0.684 0l11 4c0.396 0.144 0.658 0.519 0.658 0.939v11c0 9.494-5.236 12.819-11.563 15.899-0.138 0.068-0.288 0.102-0.437 0.102zM6 5.7v10.3c0 7.46 3.367 10.594 10 13.885 6.633-3.291 10-6.425 10-13.885v-10.3l-10-3.636-10 3.636z"></path>
<path fill="#ffb800" style="fill: var(--color1, #ffb800)" d="M15.293 20l-4.707-4.707 1.414-1.414 3.293 3.293 6.293-6.293 1.414 1.414-7.707 7.707z"></path>
</symbol>
<symbol id="icon-credit-card" viewBox="0 0 32 32">
<path fill="#ffb800" style="fill: var(--color1, #ffb800)" d="M27.788 3.141h-19.226c-2.322 0-4.212 1.889-4.212 4.212v0.569h-0.138c-2.322 0-4.212 1.889-4.212 4.212v12.514c0 2.322 1.889 4.212 4.212 4.212h19.225c2.322 0 4.212-1.89 4.212-4.212v-0.569h0.138c2.322 0 4.212-1.89 4.212-4.212v-12.514c-0-2.322-1.89-4.212-4.212-4.212zM25.775 24.647c0 1.289-1.048 2.337-2.337 2.337h-19.225c-1.289 0-2.337-1.048-2.337-2.337v-5.569h23.9v5.569zM25.775 17.203h-23.9v-2.625h23.9v2.625zM25.775 12.703h-23.9v-0.569c0-1.289 1.048-2.337 2.337-2.337h19.225c1.289 0 2.337 1.048 2.337 2.337v0.569zM30.125 19.866c0 1.289-1.048 2.337-2.337 2.337h-0.138v-10.069c0-2.322-1.89-4.212-4.212-4.212h-17.212v-0.569c0-1.289 1.048-2.337 2.337-2.337h19.226c1.289 0 2.337 1.048 2.337 2.337v12.514z"></path>
<path fill="#ffb800" style="fill: var(--color1, #ffb800)" d="M4.542 21.953h8.25v1.875h-8.25v-1.875z"></path>
<path fill="#ffb800" style="fill: var(--color1, #ffb800)" d="M19.667 21.953h3.441v1.875h-3.441v-1.875z"></path>
</symbol>
<symbol id="icon-operator" viewBox="0 0 32 32">
<path fill="#ffb800" style="fill: var(--color1, #ffb800)" d="M28.207 26.486c-0.071-4.349-4.518-5.634-7.764-6.572-0.379-0.109-0.743-0.215-1.084-0.32v-1.794c0.664-0.416 1.245-0.952 1.715-1.576h1.978c0.968 0 1.755-0.787 1.755-1.755v-2.125c0.117-0.274 0.183-0.574 0.183-0.891v-0.661c0-0.316-0.065-0.617-0.183-0.89v-1.096c0-4.856-3.95-8.806-8.806-8.806-4.855 0-8.804 3.95-8.804 8.806v1.065c0 0.008 0.001 0.016 0.001 0.025-0.119 0.275-0.186 0.578-0.186 0.896v0.661c0 1.249 1.016 2.265 2.264 2.265h0.516c0.358 1.716 1.411 3.179 2.85 4.081v1.794c-0.341 0.105-0.706 0.21-1.085 0.32-3.247 0.938-7.693 2.223-7.764 6.572-0 0.003-0 0.007-0 0.010v4.879c0 0.345 0.28 0.625 0.625 0.625h1.853c0.345 0 0.625-0.28 0.625-0.625s-0.28-0.625-0.625-0.625h-1.228v-4.249c0.026-1.517 0.723-2.655 2.193-3.58 0.97-0.61 2.156-1.045 3.325-1.409l1.51 2.942c0.168 0.328 0.599 0.439 0.906 0.233l0.673-0.454 0.578 2.173-0.99 4.343h-1.354c-0.345 0-0.625 0.28-0.625 0.625s0.28 0.625 0.625 0.625h15.7c0.345 0 0.625-0.28 0.625-0.625v-4.879c0-0.003 0-0.007-0-0.010zM20.096 21.115c0.041 0.012 0.083 0.024 0.125 0.036l-1.080 2.107-2.022-1.363 1.713-1.156c0.398 0.125 0.821 0.248 1.265 0.376zM16 22.648l1.253 0.845-0.606 2.277h-1.296l-0.606-2.276 1.254-0.846zM16 21.141l-2.109-1.422v-1.316c0.66 0.233 1.37 0.361 2.108 0.361s1.449-0.128 2.109-0.361v1.315l-2.108 1.422zM21.092 8.921c-0.009-0.005-0.017-0.011-0.026-0.016-1.282-0.816-2.39-1.521-4.126-1.025-0.016 0.005-0.032 0.010-0.048 0.016-0.368 0.138-0.702 0.267-1.026 0.392-1.976 0.761-3.056 1.176-4.959 1.123v-0.5c0-2.808 2.284-5.092 5.092-5.092s5.092 2.284 5.092 5.092v0.012h0zM23.556 14.468c0 0.279-0.227 0.505-0.505 0.505h-1.246c0.176-0.399 0.312-0.819 0.403-1.255h0.516c0.293 0 0.574-0.057 0.831-0.159v0.909h-0zM23.739 11.453c0 0.56-0.455 1.016-1.014 1.016h-0.384c0-0.016 0.001-2.69 0.001-2.69h0.383c0.559 0 1.014 0.455 1.014 1.014v0.661zM9.275 12.469c-0.559 0-1.014-0.456-1.014-1.015v-0.661c0-0.559 0.455-1.014 1.014-1.014h0.383c0 0 0 2.675 0.001 2.69h-0.384zM9.67 8.529h-0.395c-0.292 0-0.571 0.056-0.828 0.157 0.065-4.111 3.428-7.436 7.553-7.436 4.126 0 7.49 3.325 7.555 7.437-0.257-0.102-0.537-0.158-0.83-0.158h-0.395c-0.197-3.321-2.961-5.962-6.33-5.962s-6.133 2.641-6.33 5.962zM10.946 13.030c-0-0.001-0-0.001-0-0.002-0.024-0.199-0.037-0.401-0.037-0.606v-1.763c2.138 0.052 3.414-0.439 5.408-1.206 0.314-0.121 0.639-0.246 0.992-0.379 1.181-0.33 1.86 0.103 3.087 0.884 0.213 0.136 0.446 0.284 0.697 0.437v2.027c0 0.929-0.252 1.801-0.688 2.552h-4.404c-0.345 0-0.625 0.28-0.625 0.625s0.28 0.625 0.625 0.625h3.383c-0.9 0.802-2.085 1.29-3.383 1.29-2.602-0-4.753-1.962-5.054-4.484zM12.861 23.258l-1.082-2.107c0.041-0.012 0.083-0.024 0.124-0.036 0.443-0.128 0.867-0.251 1.265-0.376l1.714 1.156-2.021 1.363zM14.52 30.75l0.851-3.73h1.26l0.852 3.73h-2.962zM26.958 30.75h-8.193l-0.992-4.344 0.578-2.174 0.675 0.455c0.306 0.207 0.737 0.095 0.906-0.233l1.508-2.942c1.169 0.364 2.355 0.798 3.325 1.408 1.47 0.925 2.167 2.062 2.193 3.58v4.249h-0z"></path>
<path fill="#ffb800" style="fill: var(--color1, #ffb800)" d="M24.489 27.625h-3.15c-0.345 0-0.625 0.28-0.625 0.625s0.28 0.625 0.625 0.625h3.15c0.345 0 0.625-0.28 0.625-0.625s-0.28-0.625-0.625-0.625z"></path>
<path fill="#ffb800" style="fill: var(--color1, #ffb800)" d="M9.077 30.75c-0.345 0-0.625 0.28-0.625 0.625s0.28 0.625 0.625 0.625h0.002c0.345 0 0.624-0.28 0.624-0.625s-0.281-0.625-0.626-0.625z"></path>
</symbol>
<symbol id="icon-box" viewBox="0 0 30 32">
<path fill="#ffb800" style="fill: var(--color1, #ffb800)" d="M29.933 7.061l-14.529-7.014c-0.129-0.062-0.279-0.062-0.408 0l-14.529 7.014c-0.162 0.078-0.265 0.242-0.265 0.422v17.034c0 0.18 0.103 0.344 0.265 0.422l14.529 7.014c0.064 0.031 0.134 0.047 0.204 0.047s0.139-0.016 0.204-0.047l14.529-7.014c0.162-0.078 0.265-0.242 0.265-0.422v-17.034c0-0.18-0.103-0.344-0.265-0.422zM15.2 0.989l13.451 6.494-3.899 1.882c-0.025-0.019-0.051-0.036-0.079-0.050l-13.36-6.449 3.887-1.877zM10.254 3.396l13.432 6.484-2.751 1.328-13.426-6.482 2.745-1.331zM24 10.769v4.909l-2.57 1.24v-4.909l2.57-1.24zM29.26 24.223l-13.592 6.561v-15.993l3.242-1.565c0.233-0.113 0.331-0.393 0.218-0.626s-0.393-0.331-0.626-0.218l-3.303 1.595-1.3-0.628c-0.233-0.113-0.513-0.015-0.626 0.218s-0.015 0.513 0.218 0.626l1.239 0.598v15.993l-13.592-6.561v-15.993l10.35 4.997c0.066 0.032 0.135 0.047 0.203 0.047 0.174 0 0.342-0.098 0.422-0.265 0.113-0.233 0.015-0.513-0.218-0.626l-10.148-4.899 4.657-2.248 14.081 6.798c0.002 0.003 0.004 0.005 0.006 0.008v5.625c0 0.161 0.083 0.311 0.22 0.397 0.076 0.048 0.162 0.072 0.249 0.072 0.070 0 0.139-0.015 0.204-0.047l3.507-1.693c0.162-0.078 0.265-0.242 0.265-0.422v-5.656l4.323-2.087v15.993z"></path>
</symbol>
<symbol id="icon-star" viewBox="0 0 32 32">
<path d="M32 12.408l-11.056-1.607-4.944-10.018-4.944 10.018-11.056 1.607 8 7.798-1.889 11.011 9.889-5.199 9.889 5.199-1.889-11.011 8-7.798z"></path>
</symbol>
<symbol id="icon-yelp" viewBox="0 0 32 32">
<path d="M19.027 20.421c-0.54 0.545-0.083 1.535-0.083 1.535l4.065 6.788c0 0 0.668 0.895 1.246 0.895 0.581 0 1.155-0.477 1.155-0.477l3.214-4.594c0 0 0.324-0.58 0.331-1.087 0.012-0.722-1.077-0.92-1.077-0.92l-7.609-2.444c-0 0-0.746-0.198-1.242 0.303zM18.642 17c0.389 0.66 1.463 0.468 1.463 0.468l7.592-2.219c0 0 1.035-0.421 1.182-0.982 0.145-0.561-0.171-1.238-0.171-1.238l-3.628-4.274c0 0-0.314-0.54-0.967-0.595-0.719-0.061-1.162 0.809-1.162 0.809l-4.29 6.75c0 0-0.379 0.672-0.020 1.28zM15.055 14.368c0.894-0.22 1.036-1.519 1.036-1.519l-0.061-10.808c0 0-0.135-1.333-0.734-1.695-0.94-0.57-1.218-0.272-1.487-0.233l-6.303 2.342c0 0-0.617 0.204-0.939 0.719-0.459 0.73 0.466 1.798 0.466 1.798l6.551 8.93c0 0 0.647 0.669 1.47 0.465zM13.498 18.742c0.023-0.834-1.001-1.334-1.001-1.334l-6.775-3.423c0 0-1.004-0.414-1.491-0.126-0.373 0.221-0.704 0.62-0.737 0.973l-0.441 5.432c0 0-0.066 0.941 0.178 1.369 0.345 0.608 1.482 0.184 1.482 0.184l7.909-1.748c0.307-0.207 0.846-0.225 0.876-1.328zM15.465 21.673c-0.679-0.349-1.491 0.373-1.491 0.373l-5.296 5.83c0 0-0.661 0.892-0.493 1.439 0.158 0.513 0.42 0.768 0.791 0.948l5.319 1.679c0 0 0.645 0.134 1.133-0.008 0.693-0.201 0.565-1.286 0.565-1.286l0.12-7.894c-0 0-0.027-0.76-0.648-1.082z"></path>
</symbol>
<symbol id="icon-google-plus" viewBox="0 0 32 32">
<path d="M10.181 14.294v3.494h5.775c-0.231 1.5-1.744 4.394-5.775 4.394-3.475 0-6.313-2.881-6.313-6.431s2.838-6.431 6.313-6.431c1.981 0 3.3 0.844 4.056 1.569l2.762-2.662c-1.775-1.656-4.075-2.662-6.819-2.662-5.631 0.006-10.181 4.556-10.181 10.188s4.55 10.181 10.181 10.181c5.875 0 9.775-4.131 9.775-9.95 0-0.669-0.075-1.181-0.163-1.688h-9.613z"></path>
<path d="M32 14h-3v-3h-3v3h-3v3h3v3h3v-3h3z"></path>
</symbol>
<symbol id="icon-facebook" viewBox="0 0 32 32">
<path d="M29 0h-26c-1.65 0-3 1.35-3 3v26c0 1.65 1.35 3 3 3h13v-14h-4v-4h4v-2c0-3.306 2.694-6 6-6h4v4h-4c-1.1 0-2 0.9-2 2v2h6l-1 4h-5v14h9c1.65 0 3-1.35 3-3v-26c0-1.65-1.35-3-3-3z"></path>
</symbol>
<symbol id="icon-menu" viewBox="0 0 32 32">
<path d="M2 6h28v6h-28zM2 14h28v6h-28zM2 22h28v6h-28z"></path>
</symbol>
<symbol id="icon-close" viewBox="0 0 32 32" >
<path  d="M32 3.224l-3.224-3.224-12.776 12.776-12.776-12.776-3.224 3.224 12.776 12.776-12.776 12.776 3.224 3.224 12.776-12.776 12.776 12.776 3.224-3.224-12.776-12.776 12.776-12.776z"/>
</symbol></defs>
</svg>

